# Blender v2.78 (sub 0) OBJ File: ''
# www.blender.org
mtllib cubeTex4.mtl
o Cube
v -1.517012 -1.251537 1.517012
v -1.517012 -1.251537 -1.517012
v 1.517012 -1.251537 -1.517011
v 1.517011 -1.251537 1.517012
v -2.767554 2.283355 1.416460
v -1.517011 1.251537 -1.517013
v 2.199773 1.504073 -2.694707
v 1.517012 1.251537 1.517012
vt 0.0000 0.0000
vt 1.0000 1.0000
vt 0.0000 1.0000
vt 1.0000 0.0000
vt 0.0000 1.0000
vt 0.0000 0.0000
vt 1.0000 0.0000
vt 0.0000 1.0000
vt 1.0000 0.0000
vt 0.0000 1.0000
vt 0.0000 0.0000
vt 0.0000 0.0000
vt 1.0000 1.0000
vt 1.0000 0.0000
vt 0.0000 1.0000
vt 1.0000 0.0000
vt 1.0000 1.0000
vt 1.0000 1.0000
vt 1.0000 0.0000
vt 1.0000 1.0000
vn -0.4656 -0.6487 0.6019
vn 0.5226 -0.6937 -0.4956
vn 0.5773 -0.5773 0.5773
vn 0.5907 0.5342 0.6048
vn -0.4689 0.5367 -0.7015
vn -0.6570 0.6466 0.3876
vn -0.5016 -0.6141 -0.6093
vn 0.5660 0.4327 -0.7017
usemtl Material
s 1
f 1/1/1 3/2/2 4/3/3
f 8/4/4 6/5/5 5/6/6
f 5/7/6 2/8/7 1/1/1
f 6/9/5 3/10/2 2/11/7
f 3/12/2 8/13/4 4/3/3
f 1/14/1 8/15/4 5/6/6
f 1/1/1 2/16/7 3/2/2
f 8/4/4 7/17/8 6/5/5
f 5/7/6 6/18/5 2/8/7
f 6/9/5 7/17/8 3/10/2
f 3/12/2 7/19/8 8/13/4
f 1/14/1 4/20/3 8/15/4
